# xmcd
#
# Track frame offsets:
#  150
#  20507
#  38257
#  63778
#  86249
#  107151
#  121720
#  138631
#  161576
#  176984
#  212281
#
# Disc length: 3386 seconds
#
# Revision: 0
# Processed by: cddbd v1.4PL0 Copyright (c) Steve Scherf et al.
# Submitted via: AltoMP3_Maker 3.0
#
DISCID=8b0d380b
DTITLE=K-Floor - Non-Filtered
DYEAR=1900
DGENRE=
TTITLE0=Misery
TTITLE1=Don't Want No Woman
TTITLE2=May I Be Excused
TTITLE3=Thieve's Journal
TTITLE4=Poison
TTITLE5=Ticket to Hell
TTITLE6=Somanydynamos
TTITLE7=Killing Floor
TTITLE8=Break of Day
TTITLE9=Five Long Years
TTITLE10=?
EXTD=
EXTT0=
EXTT1=
EXTT2=
EXTT3=
EXTT4=
EXTT5=
EXTT6=
EXTT7=
EXTT8=
EXTT9=
EXTT10=
PLAYORDER=
